<?xml version="1.0" encoding="UTF-8"?>
<svg id="Layer_1" xmlns="http://www.w3.org/2000/svg" version="1.1" viewBox="0 0 465.3 93.19">
  <!-- Generator: Adobe Illustrator 30.6.0, SVG Export Plug-In . SVG Version: 2.1.4 Build 109)  -->
  <defs>
    <style>
      .st0 {
        fill: #fff;
      }
    </style>
  </defs>
  <path class="st0" d="M277.67,68.28c-.64-2.55-2.39-4.47-4.59-5.43-1.37-.6-2.9-.71-4.38-.49l-4.97.73c-20.6,3.04-41.53,3.04-62.13,0l-4.97-.73c-1.48-.22-3.01-.1-4.38.49-2.63,1.15-4.63,3.68-4.83,7.02-.06.96.12,1.93.43,2.84,4.02,12.06,22.44,20.48,44.82,20.48s39.88-8,44.49-19.57c.68-1.7.96-3.57.52-5.34ZM271.41,73.04c-4.52,6.99-12.8,10.57-20.9,12.51-13.14,3.15-27.16,2.94-40.01-1.23-6.47-2.1-12.93-5.45-16.53-11.22-.81-1.3-1.53-3.09-.8-4.58.37-.76,1.3-.89,2.26-.81.86.07,1.75.31,2.33.43,22.99,4.75,46.95,4.73,69.93-.06,1.48-.31,3.29-.53,4.24.64.98,1.21.31,3.01-.53,4.32Z"/>
  <g>
    <path class="st0" d="M137.24,3.49c-1.18-1.59-3.05-2.53-5.04-2.53h-12.22c-2.8,0-5.26,1.85-6.03,4.54l-3.35,11.67c-.44,1.56-.87,2.58-1.22,3.25-.35-.67-.78-1.7-1.23-3.27l-3.34-11.64c-.77-2.69-3.23-4.54-6.03-4.54h-12.22c-1.83,0-3.55.8-4.73,2.17-3.79-2.01-8.23-3.13-13.11-3.13-9.51,0-17.39,4.25-21.95,11.08C41.93,4.61,33.99.95,23.78.95H6.27C2.81.95,0,3.76,0,7.23v33.02c0,9.72,7.05,16.77,16.77,16.77h7.02c7.63,0,14-2.04,18.76-5.78.25,3.23,2.95,5.78,6.25,5.78h11.74c3.46,0,6.27-2.81,6.27-6.27v-3.42h3.88v3.42c0,3.46,2.81,6.27,6.27,6.27h11.74c3.46,0,6.27-2.81,6.27-6.27v-11.84c.74.57,1.5,1.1,2.3,1.57v10.27c0,3.46,2.81,6.27,6.27,6.27h11.74c3.46,0,6.27-2.81,6.27-6.27v-10.27c5.84-3.45,10.07-9.66,12.85-18.84l3.82-12.6c.58-1.9.22-3.96-.97-5.56ZM23.78,50.75h-7.02c-6.3,0-10.5-4.2-10.5-10.5V7.23h17.51c14.6,0,22.1,8.69,22.1,21.76s-7.49,21.76-22.1,21.76ZM88.68,50.75h-11.74v-9.69h-16.42v9.69h-11.74v-25.01c0-11.5,8.07-19.47,19.95-19.47s19.95,7.97,19.95,19.47v25.01ZM128.39,19.82c-2.62,8.64-6.68,14.51-13.12,16.66v14.27h-11.74v-14.27c-6.44-2.15-10.5-8.02-13.12-16.66l-3.82-12.6h12.22l3.34,11.64c1.24,4.39,3.39,8.69,7.25,8.69s6.01-4.3,7.25-8.69l3.34-11.64h12.22l-3.82,12.6Z"/>
    <path class="st0" d="M68.74,16.1c-5.3,0-8.21,4.15-8.21,8.69v6.44h16.42v-6.44c0-4.53-2.91-8.69-8.21-8.69ZM70.67,24.96h-3.88v-.17c0-1.6.65-2.42,1.94-2.42s1.94.81,1.94,2.42v.17Z"/>
    <path class="st0" d="M21.02,16.86h-3.01v23.05c0,.72.48,1.19,1.19,1.19h1.81c8.35,0,13.12-3.63,13.12-12.12s-4.77-12.12-13.12-12.12ZM24.28,34.57v-11.17c2.71.57,3.59,2.16,3.59,5.58s-.88,5.01-3.59,5.59Z"/>
  </g>
  <g>
    <path class="st0" d="M353.09,27.6c-4.53,0-6.54,3.77-6.54,7.68s2,7.68,6.54,7.68,6.49-3.77,6.49-7.68v-.29c-.1-3.82-2-7.4-6.49-7.4ZM353.31,35.29c0,.69-.11,1.16-.21,1.41h-.03c-.1-.23-.24-.7-.24-1.41s.14-1.18.24-1.41h.03c.09.23.19.63.21,1.22v.19Z"/>
    <path class="st0" d="M176.39,16.1c-5.3,0-8.21,4.15-8.21,8.69v6.44h16.42v-6.44c0-4.53-2.91-8.69-8.21-8.69ZM178.33,24.96h-3.88v-.17c0-1.6.65-2.42,1.94-2.42s1.94.81,1.94,2.42v.17Z"/>
    <path class="st0" d="M262.33,16.86h-3.01v23.05c0,.72.48,1.19,1.19,1.19h1.81c8.35,0,13.12-3.63,13.12-12.12s-4.77-12.12-13.12-12.12ZM265.59,34.57v-11.17c2.71.57,3.59,2.16,3.59,5.58s-.88,5.01-3.59,5.59Z"/>
    <path class="st0" d="M441.56,27.6c-4.53,0-6.54,3.77-6.54,7.68s2,7.68,6.54,7.68,6.39-3.58,6.49-7.4v-.57c-.1-3.82-2-7.4-6.49-7.4ZM441.78,35.48c-.02.59-.13.99-.21,1.22h-.03c-.1-.23-.24-.7-.24-1.41s.14-1.18.24-1.41h.03c.09.23.19.63.21,1.22v.39Z"/>
    <path class="st0" d="M459.03.95h-10.98c-3.46,0-6.27,2.81-6.27,6.27v5.48c-.98-.13-2-.2-3.04-.2-4.29,0-8.23,1.33-11.52,3.63-1.13-1.62-3.01-2.68-5.14-2.68h-10.5c-.77,0-1.52.14-2.2.4-2.3-.89-4.85-1.35-7.58-1.35-4,0-7.71,1.16-10.86,3.19V7.23c0-3.46-2.81-6.27-6.27-6.27h-10.98c-3.46,0-6.27,2.81-6.27,6.27v6.23h-7.38c-.77,0-1.52.14-2.2.4-2.3-.89-4.85-1.35-7.58-1.35-4.41,0-8.47,1.41-11.81,3.84V7.23c0-3.46-2.81-6.27-6.27-6.27h-22.29c-9.88,0-17.24,5.67-19.3,14.3-4.31-9.05-13.29-14.3-25.51-14.3h-17.51c-.72,0-1.41.13-2.05.35-.64-.22-1.33-.35-2.05-.35h-11.74c-3.34,0-6.07,2.61-6.26,5.9-3.5-4.3-8.62-6.86-14.26-6.86-6.67,0-11.98,3.28-14.81,8.57-4.69-5.35-11.74-8.57-20.02-8.57-15.19,0-26.22,10.83-26.22,25.74v9.19h-18.78c-3.46,0-6.27,2.81-6.27,6.27v9.54c0,3.46,2.81,6.27,6.27,6.27h23.48c.27,0,.53-.02.79-.05.26.03.52.05.79.05h11.74c3.46,0,6.27-2.81,6.27-6.27v-3.42h3.88v3.42c0,3.46,2.81,6.27,6.27,6.27h11.74c.69,0,1.36-.12,1.99-.33.66.24,1.37.37,2.12.37h11.74c3.34,0,6.07-2.61,6.26-5.9,3.5,4.3,8.62,6.86,14.26,6.86s10.09-2.24,13.12-6c2.99,3.13,7.27,5,12.26,5h7.01c12.54,0,21.67-5.52,25.84-15.01v8.74c0,3.46,2.81,6.27,6.27,6.27h22.86c6.32,0,11.68-2.03,15.43-5.51,3.76,4.01,8.96,6.46,14.77,6.46,2.73,0,5.28-.46,7.58-1.35.68.26,1.43.4,2.2.4h10.5c1.83,0,3.46-.78,4.61-2.03,2.33,1.3,5.06,2.03,8.08,2.03h4.3c1.66,0,3.16-.65,4.28-1.7,2.95,1.7,6.35,2.66,9.98,2.66,2.73,0,5.28-.46,7.58-1.35.68.26,1.43.4,2.2.4h10.5c2.13,0,4-1.06,5.14-2.68,3.29,2.3,7.23,3.63,11.52,3.63,2.73,0,5.28-.46,7.58-1.35.68.26,1.43.4,2.2.4h10.5c3.46,0,6.27-2.81,6.27-6.27V7.23c0-3.46-2.81-6.27-6.27-6.27ZM154.87,50.75h-23.48v-9.54h23.48v9.54ZM196.34,50.75h-11.74v-9.69h-16.42v9.69h-11.74v-25.01c0-11.5,8.07-19.47,19.95-19.47s19.95,7.97,19.95,19.47v25.01ZM243.48,40.01c0,7.06-4.3,11.74-10.79,11.74-5.3,0-9.93-3.53-11.79-8.88l-8.35-23.96h-.38v31.88h-11.74V18.01c0-7.06,4.3-11.74,10.79-11.74,5.3,0,9.93,3.53,11.79,8.88l8.35,23.96h.38V7.23h11.74v32.79ZM265.1,50.75h-7.01c-6.3,0-10.5-4.2-10.5-10.5V7.23h17.51c14.6,0,22.1,8.69,22.1,21.76s-7.49,21.76-22.1,21.76ZM292.69,36.57c.33-1.51.55-3.1.67-4.75.73,1.08,1.57,2.07,2.5,2.96-1.23.27-2.33.9-3.17,1.78ZM320.07,50.75h-22.86v-9.83h21.81c2.58,0,4.3-1.43,4.3-3.58s-1.72-3.58-4.3-3.58h-9.12c-8.16,0-13.6-5.39-13.6-13.46s5.44-13.08,13.6-13.08h22.29v9.83h-19.85c-2.58,0-4.3,1.43-4.3,3.58s1.72,3.58,4.3,3.58h7.73c9.02,0,14.98,5.39,14.98,13.46s-5.96,13.08-14.98,13.08ZM370.56,50.75h-10.5v-3.05c-2.24,2.48-5.49,4.01-9.78,4.01-8.54,0-14.7-7.4-14.7-16.46s6.16-16.46,14.7-16.46c4.3,0,7.54,1.53,9.78,4.01v-3.05h10.5v31.02ZM387.54,50.75h-4.3c-5.73,0-9.54-3.82-9.54-9.54V7.23h10.98v32.83c0,1.15.76,1.91,1.91,1.91h.95v8.78ZM422.09,50.75h-10.5v-3.05c-2.24,2.48-5.49,4.01-9.78,4.01-8.54,0-14.7-7.4-14.7-16.46s6.16-16.46,14.7-16.46c4.3,0,7.54,1.53,9.78,4.01v-3.05h10.5v31.02ZM459.03,50.75h-10.5v-3.05c-2.24,2.48-5.49,4.01-9.78,4.01-8.54,0-14.7-7.4-14.7-16.46s6.16-16.46,14.7-16.46c4.01,0,7.06,1.34,9.31,3.53V7.23h10.98v43.52Z"/>
    <path class="st0" d="M404.63,27.6c-4.53,0-6.54,3.77-6.54,7.68s2,7.68,6.54,7.68,6.49-3.77,6.49-7.68v-.29c-.1-3.82-2-7.4-6.49-7.4ZM404.85,35.29c0,.69-.11,1.16-.21,1.41h-.03c-.1-.23-.24-.7-.24-1.41s.14-1.18.24-1.41h.03c.09.23.19.63.21,1.22v.19Z"/>
  </g>
</svg>