<?xml version="1.0" encoding="UTF-8"?>
<svg id="Layer_1" xmlns="http://www.w3.org/2000/svg" version="1.1" viewBox="0 0 456.72 374.17">
  <!-- Generator: Adobe Illustrator 30.6.0, SVG Export Plug-In . SVG Version: 2.1.4 Build 109)  -->
  <defs>
    <style>
      .st0 {
        fill: #4eab67;
      }
    </style>
  </defs>
  <g id="mphIYg.tif">
    <g>
      <path class="st0" d="M0,234.46v-8.03c9.35-23.62,29.13-44.68,51.41-58.63l-16.54-.51c-7.97-.25-14.37-4.6-17.08-12.29-3.67-10.43-1.87-22.08,4.09-31.48,6.49-10.26,17.78-14.88,29.84-12.86,17.66,2.96,34.73,6.09,52.59,7.67,19.78,1.75,38.13-.81,56.6-7.35,21.11-7.48,50.41-8.61,63.62,10.39,7.12,10.24,9.05,22.1,5.56,33.25-2.37,7.57-8.53,9.98-13.93,13.05-12,18.97-16.37,48.5-16.28,71.23.1,23.61,20.44,40.64,43.8,37.79,19.29-2.35,37.25-11.05,49.94-26.06,14.4-17.02,19.24-40.09,13.25-61.72l-35.89-129.67c-5.89-.09-10.13-2.22-14.39-5.58-1.29-1.02-14.64,3.27-16.8-7.79-2.09-10.72,10.4-12.08,10.96-13.71,2.25-6.61,6.58-11.24,12.97-13.93,16.7-7.03,27.09-19.92,41.01-18.06,11.75,1.57,21.83,7.65,27.74,17.87,4.87,8.41,7.01,18.19,5.06,27.63-1.78,8.67-8.38,13.6-17.91,13.95,32.75,28.96,68.23,70.43,69.7,115.01,28.08,10.75,51.19,30.47,66.13,56.57,1.99,3.47,1.6,7.17-1.01,9.53-2.72,2.46-6.76,3.07-10.02.41-25.44-20.68-59.66-25.59-90.67-11.95-27.11,11.93-46.92,38.23-50.82,69.37-1.39,11.13-11.46,19.79-22.8,19.8l-100.74.1c-2.53,0-4.66-2.22-4.51-4.63,2.32-36.05-17.96-69.18-49.8-84.12-33.06-15.52-72.51-8.56-98.21,17.1-3.88,3.87-9.02,5.17-14.03,3.23-6.93-2.69-10.97-8.95-12.84-15.59Z"/>
      <path class="st0" d="M93.51,374.17l-11.49-.04c-35.63-3.72-61.75-34.2-59.73-69.67,1.99-35.15,31.77-62.81,67.24-62.09,35.15.71,63.9,29.07,64.66,64.61.74,34.71-25.8,64.24-60.68,67.2Z"/>
      <path class="st0" d="M395.04,374.16l-11.51-.04c-35.69-3.42-62.06-34.18-60.03-69.63,2.01-35.07,31.44-62.55,66.74-62.12,35.08.43,63.96,28.46,65.15,63.76,1.17,34.93-25.3,64.8-60.34,68.02Z"/>
    </g>
  </g>
</svg>