<?xml version="1.0" encoding="UTF-8"?>
<svg id="Layer_1" xmlns="http://www.w3.org/2000/svg" version="1.1" viewBox="0 0 847.09 91.64">
  <!-- Generator: Adobe Illustrator 30.6.0, SVG Export Plug-In . SVG Version: 2.1.4 Build 109)  -->
  <defs>
    <style>
      .st0 {
        fill: #fff;
      }
    </style>
  </defs>
  <path class="st0" d="M137.18.04H18.94l11.01,13.62L0,91.64h82.86l45.97-27.63,19.36-50.34L137.18.04ZM99.65,39.63l-4.71,12.3-16.49,10.41-10.5,6.64h-20.82l2.57-6.64,15.17-39.46h41.22l-6.43,16.75Z"/>
  <path class="st0" d="M399.25,29.66l-51.97,31.49-11.84,30.49h-38.48l11.84-30.49-27.7-31.49,6.03-16.02L276.12.02h54.81l-6.87,17.59,14.21,16.87,26.99-16.87L372.14.02h38.48l-11.37,29.64Z"/>
  <path class="st0" d="M426.44,68.95l-8.64,22.69h-62.12l8.64-22.69h62.12Z"/>
  <path class="st0" d="M573.38,0h-118.25l11.01,13.62-29.95,78.02h38.47l11.22-29.35h41.22l-11.22,29.35h38.47l30.03-78.02-11.01-13.62ZM535.89,39.59h-41.22l6.38-16.75h41.22l-6.38,16.75Z"/>
  <path class="st0" d="M265.76,0h-118.25l11.01,13.62-29.95,78.02h38.47l11.22-29.35h41.22l-11.22,29.35h38.47l30.03-78.02-11.01-13.62ZM228.27,39.59h-41.22l6.38-16.75h41.22l-6.38,16.75Z"/>
  <path class="st0" d="M583.67.02h54.22l26.05,40.99L679.68.02h38.48l-35.28,91.62h-37.89l-26.05-40.99-15.74,40.99h-38.48l29.96-78L583.67.02Z"/>
  <path class="st0" d="M728.5.02h118.59l-24.63,63.97-45.94,27.66h-83.4L728.5.02ZM758.53,22.86l-17.76,46.09h20.84l26.99-17.01,11.14-29.07h-41.21Z"/>
</svg>