<?xml version="1.0" encoding="UTF-8"?>
<svg id="Layer_1" xmlns="http://www.w3.org/2000/svg" version="1.1" viewBox="0 0 373.86 347.7">
  <!-- Generator: Adobe Illustrator 30.6.0, SVG Export Plug-In . SVG Version: 2.1.4 Build 109)  -->
  <defs>
    <style>
      .st0 {
        fill: #4eab67;
      }
    </style>
  </defs>
  <g id="To2ty6.tif">
    <g>
      <path class="st0" d="M0,176.12v-7.72c1.4-3.7,2.66-7.64,6.17-11.16L147.65,15.82c21.08-21.07,57.4-21,78.1-.39l42.16,41.98.21-22.93c.11-12.05,10.41-21.1,22.09-20.7,11.34.39,20.65,9.53,20.66,21.51l.05,65.12,56.71,56.92c8.72,8.76,8,22-.28,30.23-8.28,8.23-21.73,8.26-30.34-.35L195.86,46.17c-5.31-5.31-13.1-4.82-18.27.35L37.17,186.85c-6.18,6.18-14.21,8.56-22.89,5.65C7.54,190.25,1.81,183.75,0,176.12Z"/>
      <path class="st0" d="M221.76,252.47l-69.68-.04v95.24s-66.61.03-66.61.03c-18.62-2.86-32.48-17.67-33.65-36.54v-91.91c-.01-3.24.78-5.82,3.1-8.14l124.3-124.28c4.5-4.5,10.91-4.5,15.41,0l124.29,124.27c2.32,2.32,3.11,4.91,3.11,8.14l-.02,91.91c-1.15,18.68-14.63,33.23-33.03,36.5l-67.27.03.05-95.21Z"/>
    </g>
  </g>
</svg>